<?xml version="1.0" encoding="UTF-8"?>
<svg xmlns="http://www.w3.org/2000/svg" viewBox="0 0 1920 1080" width="1920" height="1080" preserveAspectRatio="xMidYMid slice">
  <defs>
    <linearGradient id="bg" x1="0%" y1="0%" x2="100%" y2="100%">
      <stop offset="0%" stop-color="#1e3a5f"/>
      <stop offset="55%" stop-color="#2c5282"/>
      <stop offset="100%" stop-color="#2b6cb0"/>
    </linearGradient>
    <linearGradient id="curveFill" x1="0%" y1="0%" x2="0%" y2="100%">
      <stop offset="0%" stop-color="#4299e1" stop-opacity="0.28"/>
      <stop offset="100%" stop-color="#4299e1" stop-opacity="0"/>
    </linearGradient>
    <radialGradient id="vignette" cx="50%" cy="50%" r="78%">
      <stop offset="0%" stop-color="#000000" stop-opacity="0"/>
      <stop offset="100%" stop-color="#000000" stop-opacity="0.45"/>
    </radialGradient>
    <linearGradient id="loadbar" x1="0%" y1="0%" x2="100%" y2="0%">
      <stop offset="0%" stop-color="#4299e1"/>
      <stop offset="100%" stop-color="#27ae60"/>
    </linearGradient>
    <filter id="softGlow" x="-20%" y="-20%" width="140%" height="140%">
      <feGaussianBlur stdDeviation="3" result="b"/>
      <feMerge>
        <feMergeNode in="b"/>
        <feMergeNode in="SourceGraphic"/>
      </feMerge>
    </filter>
  </defs>

  <!-- Background gradient -->
  <rect width="1920" height="1080" fill="url(#bg)"/>

  <!-- Monte Carlo dot field -->
  <g>
  <circle cx="621.8" cy="162.9" r="1.8" fill="#ffffff" opacity="0.11"/>
  <circle cx="1576.8" cy="101.7" r="1.4" fill="#ffffff" opacity="0.11"/>
  <circle cx="974.3" cy="40.5" r="2.5" fill="#ffffff" opacity="0.18"/>
  <circle cx="462.1" cy="595.1" r="1.2" fill="#ffffff" opacity="0.25"/>
  <circle cx="237.7" cy="241.1" r="1.8" fill="#ffffff" opacity="0.20"/>
  <circle cx="118.8" cy="632.4" r="1.2" fill="#ffffff" opacity="0.28"/>
  <circle cx="89.4" cy="927.1" r="2.0" fill="#ffffff" opacity="0.18"/>
  <circle cx="1309.4" cy="111.3" r="1.4" fill="#ffffff" opacity="0.22"/>
  <circle cx="114.4" cy="222.4" r="1.8" fill="#ffffff" opacity="0.20"/>
  <circle cx="1492.3" cy="502.9" r="2.5" fill="#ffffff" opacity="0.17"/>
  <circle cx="477.0" cy="194.1" r="1.6" fill="#ffffff" opacity="0.11"/>
  <circle cx="576.5" cy="534.7" r="2.0" fill="#ffffff" opacity="0.23"/>
  <circle cx="552.8" cy="1058.6" r="1.2" fill="#ffffff" opacity="0.19"/>
  <circle cx="316.7" cy="369.4" r="2.5" fill="#ffffff" opacity="0.18"/>
  <circle cx="1847.1" cy="83.8" r="1.4" fill="#ffffff" opacity="0.20"/>
  <circle cx="1680.9" cy="338.8" r="1.8" fill="#ffffff" opacity="0.16"/>
  <circle cx="953.6" cy="860.6" r="1.2" fill="#ffffff" opacity="0.25"/>
  <circle cx="1813.8" cy="512.0" r="1.8" fill="#ffffff" opacity="0.11"/>
  <circle cx="1403.8" cy="334.4" r="1.4" fill="#ffffff" opacity="0.28"/>
  <circle cx="1578.1" cy="307.4" r="2.5" fill="#ffffff" opacity="0.26"/>
  <circle cx="666.3" cy="1015.9" r="2.0" fill="#ffffff" opacity="0.13"/>
  <circle cx="224.8" cy="63.7" r="2.0" fill="#ffffff" opacity="0.12"/>
  <circle cx="475.4" cy="422.2" r="2.5" fill="#ffffff" opacity="0.11"/>
  <circle cx="862.4" cy="593.4" r="2.5" fill="#ffffff" opacity="0.26"/>
  <circle cx="534.6" cy="448.5" r="2.0" fill="#ffffff" opacity="0.22"/>
  <circle cx="730.4" cy="249.2" r="1.2" fill="#ffffff" opacity="0.13"/>
  <circle cx="445.4" cy="252.0" r="2.5" fill="#ffffff" opacity="0.25"/>
  <circle cx="350.1" cy="304.5" r="1.6" fill="#ffffff" opacity="0.18"/>
  <circle cx="709.0" cy="611.6" r="1.8" fill="#ffffff" opacity="0.25"/>
  <circle cx="1824.4" cy="707.4" r="1.8" fill="#ffffff" opacity="0.11"/>
  <circle cx="1727.1" cy="842.4" r="1.8" fill="#ffffff" opacity="0.24"/>
  <circle cx="1217.8" cy="67.2" r="1.2" fill="#ffffff" opacity="0.28"/>
  <circle cx="846.0" cy="118.7" r="1.4" fill="#ffffff" opacity="0.11"/>
  <circle cx="0.4" cy="163.4" r="1.2" fill="#ffffff" opacity="0.27"/>
  <circle cx="1178.4" cy="75.9" r="1.6" fill="#ffffff" opacity="0.21"/>
  <circle cx="285.2" cy="272.4" r="2.0" fill="#ffffff" opacity="0.21"/>
  <circle cx="910.4" cy="124.6" r="2.5" fill="#ffffff" opacity="0.28"/>
  <circle cx="196.2" cy="370.0" r="2.0" fill="#ffffff" opacity="0.19"/>
  <circle cx="1328.7" cy="557.6" r="1.6" fill="#ffffff" opacity="0.27"/>
  <circle cx="1014.3" cy="158.3" r="1.4" fill="#ffffff" opacity="0.26"/>
  <circle cx="1455.6" cy="321.9" r="1.8" fill="#ffffff" opacity="0.26"/>
  <circle cx="1336.7" cy="282.0" r="2.0" fill="#ffffff" opacity="0.26"/>
  <circle cx="682.9" cy="240.6" r="1.4" fill="#ffffff" opacity="0.24"/>
  <circle cx="633.0" cy="240.9" r="1.6" fill="#ffffff" opacity="0.25"/>
  <circle cx="1571.2" cy="799.1" r="1.6" fill="#ffffff" opacity="0.14"/>
  <circle cx="946.1" cy="789.5" r="2.0" fill="#ffffff" opacity="0.19"/>
  <circle cx="371.8" cy="653.6" r="2.0" fill="#ffffff" opacity="0.18"/>
  <circle cx="1799.1" cy="1067.1" r="2.0" fill="#ffffff" opacity="0.11"/>
  <circle cx="196.1" cy="507.7" r="2.0" fill="#ffffff" opacity="0.14"/>
  <circle cx="1198.2" cy="972.3" r="1.2" fill="#ffffff" opacity="0.19"/>
  <circle cx="1253.7" cy="863.6" r="1.2" fill="#ffffff" opacity="0.25"/>
  <circle cx="230.2" cy="419.6" r="1.8" fill="#ffffff" opacity="0.24"/>
  <circle cx="917.8" cy="192.8" r="1.8" fill="#ffffff" opacity="0.16"/>
  <circle cx="1537.6" cy="1049.4" r="2.5" fill="#ffffff" opacity="0.18"/>
  <circle cx="1427.2" cy="91.7" r="1.6" fill="#ffffff" opacity="0.13"/>
  <circle cx="243.9" cy="163.2" r="2.5" fill="#ffffff" opacity="0.25"/>
  <circle cx="280.7" cy="892.6" r="2.5" fill="#ffffff" opacity="0.22"/>
  <circle cx="27.3" cy="1048.6" r="1.8" fill="#ffffff" opacity="0.12"/>
  <circle cx="1439.0" cy="150.4" r="1.6" fill="#ffffff" opacity="0.25"/>
  <circle cx="405.2" cy="272.0" r="2.0" fill="#ffffff" opacity="0.19"/>
  <circle cx="1466.3" cy="352.1" r="1.4" fill="#ffffff" opacity="0.18"/>
  <circle cx="251.7" cy="982.8" r="2.0" fill="#ffffff" opacity="0.26"/>
  <circle cx="1272.0" cy="880.3" r="1.4" fill="#ffffff" opacity="0.18"/>
  <circle cx="1762.0" cy="541.8" r="1.4" fill="#ffffff" opacity="0.13"/>
  <circle cx="980.3" cy="942.6" r="1.6" fill="#ffffff" opacity="0.21"/>
  <circle cx="1490.0" cy="161.8" r="1.6" fill="#ffffff" opacity="0.19"/>
  <circle cx="1392.4" cy="601.0" r="2.0" fill="#ffffff" opacity="0.22"/>
  <circle cx="1019.0" cy="521.1" r="1.4" fill="#ffffff" opacity="0.11"/>
  <circle cx="367.3" cy="45.6" r="1.2" fill="#ffffff" opacity="0.19"/>
  <circle cx="1078.5" cy="820.8" r="2.5" fill="#ffffff" opacity="0.16"/>
  <circle cx="1868.9" cy="654.6" r="1.6" fill="#ffffff" opacity="0.22"/>
  <circle cx="1807.7" cy="755.2" r="2.0" fill="#ffffff" opacity="0.27"/>
  <circle cx="1714.1" cy="218.8" r="2.5" fill="#ffffff" opacity="0.12"/>
  <circle cx="233.5" cy="477.5" r="1.2" fill="#ffffff" opacity="0.22"/>
  <circle cx="822.4" cy="229.7" r="2.0" fill="#ffffff" opacity="0.24"/>
  <circle cx="1722.3" cy="166.8" r="1.8" fill="#ffffff" opacity="0.22"/>
  <circle cx="703.1" cy="273.4" r="1.6" fill="#ffffff" opacity="0.27"/>
  <circle cx="421.6" cy="1028.7" r="2.5" fill="#ffffff" opacity="0.26"/>
  <circle cx="312.6" cy="721.3" r="1.6" fill="#ffffff" opacity="0.13"/>
  <circle cx="375.8" cy="344.0" r="1.8" fill="#ffffff" opacity="0.17"/>
  <circle cx="648.9" cy="495.4" r="2.5" fill="#ffffff" opacity="0.16"/>
  <circle cx="1891.4" cy="851.4" r="1.2" fill="#ffffff" opacity="0.12"/>
  <circle cx="522.1" cy="978.4" r="1.6" fill="#ffffff" opacity="0.15"/>
  <circle cx="248.7" cy="456.0" r="1.8" fill="#ffffff" opacity="0.25"/>
  <circle cx="496.5" cy="161.3" r="1.4" fill="#ffffff" opacity="0.20"/>
  <circle cx="1344.8" cy="96.6" r="1.2" fill="#ffffff" opacity="0.24"/>
  <circle cx="352.0" cy="966.9" r="2.0" fill="#ffffff" opacity="0.27"/>
  <circle cx="1218.1" cy="865.8" r="1.2" fill="#ffffff" opacity="0.21"/>
  <circle cx="427.0" cy="285.6" r="1.2" fill="#ffffff" opacity="0.18"/>
  <circle cx="651.2" cy="597.3" r="2.0" fill="#ffffff" opacity="0.21"/>
  <circle cx="83.0" cy="766.3" r="1.2" fill="#ffffff" opacity="0.27"/>
  <circle cx="502.8" cy="195.6" r="2.0" fill="#ffffff" opacity="0.21"/>
  <circle cx="1019.7" cy="222.3" r="2.5" fill="#ffffff" opacity="0.19"/>
  <circle cx="341.6" cy="374.8" r="1.2" fill="#ffffff" opacity="0.28"/>
  <circle cx="70.9" cy="19.9" r="1.4" fill="#ffffff" opacity="0.20"/>
  <circle cx="363.8" cy="512.7" r="2.5" fill="#ffffff" opacity="0.12"/>
  <circle cx="1572.3" cy="466.8" r="2.5" fill="#ffffff" opacity="0.20"/>
  <circle cx="1706.4" cy="1047.9" r="2.0" fill="#ffffff" opacity="0.22"/>
  <circle cx="1886.3" cy="370.1" r="1.8" fill="#ffffff" opacity="0.23"/>
  <circle cx="268.3" cy="1068.6" r="1.2" fill="#ffffff" opacity="0.25"/>
  <circle cx="27.4" cy="675.5" r="2.0" fill="#ffffff" opacity="0.18"/>
  <circle cx="106.4" cy="718.4" r="2.5" fill="#ffffff" opacity="0.26"/>
  <circle cx="1287.4" cy="304.5" r="1.6" fill="#ffffff" opacity="0.22"/>
  <circle cx="86.9" cy="200.2" r="2.0" fill="#ffffff" opacity="0.18"/>
  <circle cx="505.4" cy="1038.7" r="1.4" fill="#ffffff" opacity="0.16"/>
  <circle cx="66.1" cy="953.0" r="1.6" fill="#ffffff" opacity="0.16"/>
  <circle cx="2.1" cy="412.2" r="2.5" fill="#ffffff" opacity="0.15"/>
  <circle cx="1259.6" cy="268.0" r="1.2" fill="#ffffff" opacity="0.12"/>
  <circle cx="1568.7" cy="155.4" r="1.4" fill="#ffffff" opacity="0.11"/>
  <circle cx="43.2" cy="328.6" r="1.6" fill="#ffffff" opacity="0.12"/>
  <circle cx="1838.7" cy="921.5" r="1.6" fill="#ffffff" opacity="0.22"/>
  <circle cx="1374.7" cy="949.4" r="2.5" fill="#ffffff" opacity="0.24"/>
  <circle cx="1383.7" cy="533.7" r="2.0" fill="#ffffff" opacity="0.23"/>
  <circle cx="1235.0" cy="47.3" r="1.8" fill="#ffffff" opacity="0.26"/>
  <circle cx="1204.5" cy="792.6" r="1.4" fill="#ffffff" opacity="0.13"/>
  <circle cx="1005.6" cy="544.7" r="1.2" fill="#ffffff" opacity="0.25"/>
  <circle cx="1121.4" cy="964.3" r="1.8" fill="#ffffff" opacity="0.27"/>
  <circle cx="1234.3" cy="91.9" r="1.2" fill="#ffffff" opacity="0.12"/>
  <circle cx="692.6" cy="113.3" r="2.5" fill="#ffffff" opacity="0.20"/>
  <circle cx="939.4" cy="3.6" r="1.2" fill="#ffffff" opacity="0.23"/>
  <circle cx="126.8" cy="795.7" r="2.0" fill="#ffffff" opacity="0.25"/>
  <circle cx="1624.6" cy="253.6" r="1.6" fill="#ffffff" opacity="0.14"/>
  <circle cx="1247.9" cy="497.2" r="1.2" fill="#ffffff" opacity="0.19"/>
  <circle cx="1312.7" cy="828.3" r="1.4" fill="#ffffff" opacity="0.21"/>
  <circle cx="380.7" cy="647.7" r="2.0" fill="#ffffff" opacity="0.15"/>
  <circle cx="1427.0" cy="328.8" r="1.4" fill="#ffffff" opacity="0.12"/>
  <circle cx="926.2" cy="524.7" r="1.2" fill="#ffffff" opacity="0.22"/>
  <circle cx="1297.4" cy="314.1" r="1.4" fill="#ffffff" opacity="0.15"/>
  <circle cx="894.5" cy="828.5" r="1.4" fill="#ffffff" opacity="0.14"/>
  <circle cx="1878.0" cy="1011.2" r="1.2" fill="#ffffff" opacity="0.15"/>
  <circle cx="146.8" cy="547.1" r="2.5" fill="#ffffff" opacity="0.28"/>
  <circle cx="742.7" cy="989.9" r="1.6" fill="#ffffff" opacity="0.11"/>
  <circle cx="173.4" cy="807.3" r="2.0" fill="#ffffff" opacity="0.27"/>
  <circle cx="254.6" cy="885.8" r="1.4" fill="#ffffff" opacity="0.15"/>
  <circle cx="216.3" cy="394.4" r="2.5" fill="#ffffff" opacity="0.26"/>
  <circle cx="933.4" cy="26.8" r="1.2" fill="#ffffff" opacity="0.27"/>
  <circle cx="1308.6" cy="437.9" r="1.8" fill="#ffffff" opacity="0.13"/>
  <circle cx="660.4" cy="341.4" r="2.0" fill="#ffffff" opacity="0.10"/>
  <circle cx="1441.4" cy="906.2" r="1.2" fill="#ffffff" opacity="0.27"/>
  <circle cx="375.8" cy="12.7" r="1.8" fill="#ffffff" opacity="0.15"/>
  <circle cx="714.7" cy="424.3" r="1.4" fill="#ffffff" opacity="0.11"/>
  <circle cx="1776.8" cy="816.1" r="1.2" fill="#ffffff" opacity="0.15"/>
  <circle cx="99.1" cy="714.9" r="1.8" fill="#ffffff" opacity="0.27"/>
  <circle cx="478.7" cy="287.0" r="1.4" fill="#ffffff" opacity="0.16"/>
  <circle cx="1484.5" cy="848.0" r="2.5" fill="#ffffff" opacity="0.26"/>
  <circle cx="1559.0" cy="681.4" r="1.4" fill="#ffffff" opacity="0.20"/>
  <circle cx="1381.6" cy="53.4" r="1.8" fill="#ffffff" opacity="0.17"/>
  <circle cx="1180.6" cy="149.7" r="2.0" fill="#ffffff" opacity="0.19"/>
  <circle cx="1750.9" cy="594.1" r="1.6" fill="#ffffff" opacity="0.18"/>
  <circle cx="659.8" cy="321.6" r="1.8" fill="#ffffff" opacity="0.23"/>
  <circle cx="1235.0" cy="81.2" r="1.4" fill="#ffffff" opacity="0.26"/>
  <circle cx="954.4" cy="237.6" r="2.5" fill="#ffffff" opacity="0.18"/>
  <circle cx="1554.0" cy="218.3" r="1.2" fill="#ffffff" opacity="0.23"/>
  <circle cx="532.8" cy="1045.1" r="1.6" fill="#ffffff" opacity="0.22"/>
  <circle cx="1016.1" cy="853.5" r="1.2" fill="#ffffff" opacity="0.15"/>
  <circle cx="477.0" cy="431.7" r="2.5" fill="#ffffff" opacity="0.18"/>
  <circle cx="599.1" cy="879.5" r="1.2" fill="#ffffff" opacity="0.12"/>
  <circle cx="816.4" cy="824.8" r="1.4" fill="#ffffff" opacity="0.19"/>
  <circle cx="140.4" cy="1004.7" r="1.4" fill="#ffffff" opacity="0.25"/>
  <circle cx="1866.7" cy="268.3" r="1.2" fill="#ffffff" opacity="0.14"/>
  <circle cx="292.0" cy="1049.6" r="1.2" fill="#ffffff" opacity="0.27"/>
  <circle cx="1385.7" cy="699.1" r="2.5" fill="#ffffff" opacity="0.12"/>
  <circle cx="1491.6" cy="1.5" r="1.6" fill="#ffffff" opacity="0.14"/>
  <circle cx="1766.2" cy="697.1" r="2.0" fill="#ffffff" opacity="0.27"/>
  <circle cx="1466.6" cy="107.4" r="2.0" fill="#ffffff" opacity="0.19"/>
  <circle cx="1154.0" cy="11.3" r="2.0" fill="#ffffff" opacity="0.28"/>
  <circle cx="534.9" cy="341.7" r="1.6" fill="#ffffff" opacity="0.19"/>
  <circle cx="450.8" cy="266.8" r="2.5" fill="#ffffff" opacity="0.23"/>
  <circle cx="590.2" cy="23.5" r="2.5" fill="#ffffff" opacity="0.26"/>
  <circle cx="1242.6" cy="87.6" r="1.6" fill="#ffffff" opacity="0.22"/>
  <circle cx="1776.3" cy="244.9" r="1.2" fill="#ffffff" opacity="0.23"/>
  <circle cx="1379.2" cy="391.3" r="2.5" fill="#ffffff" opacity="0.14"/>
  <circle cx="1530.4" cy="798.3" r="1.4" fill="#ffffff" opacity="0.11"/>
  <circle cx="951.7" cy="216.4" r="1.6" fill="#ffffff" opacity="0.14"/>
  <circle cx="425.2" cy="821.3" r="2.0" fill="#ffffff" opacity="0.12"/>
  <circle cx="1197.3" cy="658.9" r="2.5" fill="#ffffff" opacity="0.18"/>
  <circle cx="1277.4" cy="1024.7" r="1.6" fill="#ffffff" opacity="0.27"/>
  <circle cx="104.4" cy="25.5" r="1.4" fill="#ffffff" opacity="0.13"/>
  <circle cx="99.5" cy="64.9" r="2.5" fill="#ffffff" opacity="0.18"/>
  <circle cx="1367.1" cy="339.3" r="1.2" fill="#ffffff" opacity="0.28"/>
  <circle cx="1788.7" cy="355.6" r="1.6" fill="#ffffff" opacity="0.22"/>
  <circle cx="1392.7" cy="906.3" r="2.0" fill="#ffffff" opacity="0.18"/>
  <circle cx="209.2" cy="84.5" r="1.2" fill="#ffffff" opacity="0.16"/>
  <circle cx="1834.6" cy="133.6" r="1.6" fill="#ffffff" opacity="0.17"/>
  <circle cx="1476.0" cy="333.4" r="2.5" fill="#ffffff" opacity="0.12"/>
  <circle cx="1354.1" cy="211.4" r="1.4" fill="#ffffff" opacity="0.27"/>
  <circle cx="370.6" cy="393.4" r="2.5" fill="#ffffff" opacity="0.11"/>
  <circle cx="788.7" cy="876.8" r="2.5" fill="#ffffff" opacity="0.11"/>
  <circle cx="66.9" cy="67.6" r="1.2" fill="#ffffff" opacity="0.15"/>
  <circle cx="1434.8" cy="970.4" r="2.0" fill="#ffffff" opacity="0.17"/>
  <circle cx="643.1" cy="1030.1" r="1.2" fill="#ffffff" opacity="0.15"/>
  <circle cx="1375.9" cy="341.8" r="2.0" fill="#ffffff" opacity="0.15"/>
  <circle cx="1385.4" cy="643.2" r="1.8" fill="#ffffff" opacity="0.27"/>
  <circle cx="125.4" cy="892.1" r="1.2" fill="#ffffff" opacity="0.19"/>
  <circle cx="1837.0" cy="1030.2" r="2.5" fill="#ffffff" opacity="0.24"/>
  <circle cx="1754.0" cy="880.0" r="1.6" fill="#ffffff" opacity="0.27"/>
  <circle cx="351.2" cy="866.8" r="1.8" fill="#ffffff" opacity="0.15"/>
  <circle cx="1328.9" cy="163.4" r="1.6" fill="#ffffff" opacity="0.16"/>
  <circle cx="613.5" cy="390.8" r="1.4" fill="#ffffff" opacity="0.11"/>
  <circle cx="378.8" cy="813.1" r="1.6" fill="#ffffff" opacity="0.17"/>
  </g>

  <!-- Vignette focuses attention on center -->
  <rect width="1920" height="1080" fill="url(#vignette)"/>

  <!-- Distribution composition (histogram + bell curve) -->
  <g>
    <!-- histogram bars -->
    <rect x="316.0" y="842.0" width="62.1" height="8.0" rx="2" fill="#4299e1" opacity="0.32"/>
    <rect x="384.1" y="842.0" width="62.1" height="8.0" rx="2" fill="#4299e1" opacity="0.32"/>
    <rect x="452.2" y="837.4" width="62.1" height="12.6" rx="2" fill="#4299e1" opacity="0.32"/>
    <rect x="520.3" y="819.9" width="62.1" height="30.1" rx="2" fill="#4299e1" opacity="0.32"/>
    <rect x="588.4" y="782.2" width="62.1" height="67.8" rx="2" fill="#4299e1" opacity="0.32"/>
    <rect x="656.5" y="752.6" width="62.1" height="97.4" rx="2" fill="#4299e1" opacity="0.32"/>
    <rect x="724.6" y="705.9" width="62.1" height="144.1" rx="2" fill="#4299e1" opacity="0.32"/>
    <rect x="792.7" y="654.3" width="62.1" height="195.7" rx="2" fill="#4299e1" opacity="0.32"/>
    <rect x="860.8" y="624.5" width="62.1" height="225.5" rx="2" fill="#4299e1" opacity="0.32"/>
    <rect x="928.9" y="628.0" width="62.1" height="222.0" rx="2" fill="#4299e1" opacity="0.32"/>
    <rect x="997.1" y="639.8" width="62.1" height="210.2" rx="2" fill="#4299e1" opacity="0.32"/>
    <rect x="1065.2" y="663.9" width="62.1" height="186.1" rx="2" fill="#4299e1" opacity="0.32"/>
    <rect x="1133.3" y="697.3" width="62.1" height="152.7" rx="2" fill="#ed8936" opacity="0.45"/>
    <rect x="1201.4" y="752.2" width="62.1" height="97.8" rx="2" fill="#ed8936" opacity="0.45"/>
    <rect x="1269.5" y="783.7" width="62.1" height="66.3" rx="2" fill="#ed8936" opacity="0.45"/>
    <rect x="1337.6" y="807.1" width="62.1" height="42.9" rx="2" fill="#ed8936" opacity="0.45"/>
    <rect x="1405.7" y="825.5" width="62.1" height="24.5" rx="2" fill="#ed8936" opacity="0.45"/>
    <rect x="1473.8" y="835.5" width="62.1" height="14.5" rx="2" fill="#ed8936" opacity="0.45"/>
    <rect x="1541.9" y="842.0" width="62.1" height="8.0" rx="2" fill="#ed8936" opacity="0.45"/>

    <!-- baseline -->
    <line x1="304.0" y1="850.0"
          x2="1616.0" y2="850.0"
          stroke="#ffffff" stroke-opacity="0.18" stroke-width="1"/>

    <!-- bell curve fill -->
    <path d="M 260.0 850.0 L 260.0 847.3 L 267.0 847.1 L 274.1 846.8 L 281.1 846.5 L 288.1 846.2 L 295.2 845.9 L 302.2 845.5 L 309.2 845.1 L 316.3 844.7 L 323.3 844.2 L 330.4 843.7 L 337.4 843.2 L 344.4 842.6 L 351.5 842.0 L 358.5 841.3 L 365.5 840.7 L 372.6 839.9 L 379.6 839.1 L 386.6 838.3 L 393.7 837.4 L 400.7 836.4 L 407.7 835.4 L 414.8 834.3 L 421.8 833.2 L 428.8 832.0 L 435.9 830.7 L 442.9 829.4 L 449.9 828.0 L 457.0 826.5 L 464.0 824.9 L 471.1 823.3 L 478.1 821.6 L 485.1 819.7 L 492.2 817.8 L 499.2 815.9 L 506.2 813.8 L 513.3 811.6 L 520.3 809.3 L 527.3 807.0 L 534.4 804.5 L 541.4 802.0 L 548.4 799.3 L 555.5 796.6 L 562.5 793.8 L 569.5 790.8 L 576.6 787.8 L 583.6 784.7 L 590.7 781.4 L 597.7 778.1 L 604.7 774.7 L 611.8 771.2 L 618.8 767.6 L 625.8 763.9 L 632.9 760.2 L 639.9 756.3 L 646.9 752.4 L 654.0 748.5 L 661.0 744.4 L 668.0 740.3 L 675.1 736.1 L 682.1 731.9 L 689.1 727.6 L 696.2 723.3 L 703.2 719.0 L 710.3 714.7 L 717.3 710.3 L 724.3 705.9 L 731.4 701.5 L 738.4 697.1 L 745.4 692.8 L 752.5 688.4 L 759.5 684.1 L 766.5 679.8 L 773.6 675.6 L 780.6 671.4 L 787.6 667.3 L 794.7 663.3 L 801.7 659.3 L 808.7 655.5 L 815.8 651.7 L 822.8 648.1 L 829.8 644.6 L 836.9 641.2 L 843.9 637.9 L 851.0 634.8 L 858.0 631.9 L 865.0 629.1 L 872.1 626.5 L 879.1 624.0 L 886.1 621.7 L 893.2 619.6 L 900.2 617.8 L 907.2 616.1 L 914.3 614.6 L 921.3 613.3 L 928.3 612.2 L 935.4 611.3 L 942.4 610.7 L 949.4 610.2 L 956.5 610.0 L 963.5 610.0 L 970.6 610.2 L 977.6 610.7 L 984.6 611.3 L 991.7 612.2 L 998.7 613.3 L 1005.7 614.6 L 1012.8 616.1 L 1019.8 617.8 L 1026.8 619.6 L 1033.9 621.7 L 1040.9 624.0 L 1047.9 626.5 L 1055.0 629.1 L 1062.0 631.9 L 1069.0 634.8 L 1076.1 637.9 L 1083.1 641.2 L 1090.2 644.6 L 1097.2 648.1 L 1104.2 651.7 L 1111.3 655.5 L 1118.3 659.3 L 1125.3 663.3 L 1132.4 667.3 L 1139.4 671.4 L 1146.4 675.6 L 1153.5 679.8 L 1160.5 684.1 L 1167.5 688.4 L 1174.6 692.8 L 1181.6 697.1 L 1188.6 701.5 L 1195.7 705.9 L 1202.7 710.3 L 1209.7 714.7 L 1216.8 719.0 L 1223.8 723.3 L 1230.9 727.6 L 1237.9 731.9 L 1244.9 736.1 L 1252.0 740.3 L 1259.0 744.4 L 1266.0 748.5 L 1273.1 752.4 L 1280.1 756.3 L 1287.1 760.2 L 1294.2 763.9 L 1301.2 767.6 L 1308.2 771.2 L 1315.3 774.7 L 1322.3 778.1 L 1329.3 781.4 L 1336.4 784.7 L 1343.4 787.8 L 1350.5 790.8 L 1357.5 793.8 L 1364.5 796.6 L 1371.6 799.3 L 1378.6 802.0 L 1385.6 804.5 L 1392.7 807.0 L 1399.7 809.3 L 1406.7 811.6 L 1413.8 813.8 L 1420.8 815.9 L 1427.8 817.8 L 1434.9 819.7 L 1441.9 821.6 L 1448.9 823.3 L 1456.0 824.9 L 1463.0 826.5 L 1470.1 828.0 L 1477.1 829.4 L 1484.1 830.7 L 1491.2 832.0 L 1498.2 833.2 L 1505.2 834.3 L 1512.3 835.4 L 1519.3 836.4 L 1526.3 837.4 L 1533.4 838.3 L 1540.4 839.1 L 1547.4 839.9 L 1554.5 840.7 L 1561.5 841.3 L 1568.5 842.0 L 1575.6 842.6 L 1582.6 843.2 L 1589.6 843.7 L 1596.7 844.2 L 1603.7 844.7 L 1610.8 845.1 L 1617.8 845.5 L 1624.8 845.9 L 1631.9 846.2 L 1638.9 846.5 L 1645.9 846.8 L 1653.0 847.1 L 1660.0 847.3 L 1660.0 850.0 Z" fill="url(#curveFill)"/>

    <!-- bell curve stroke -->
    <path d="M 260.0 847.3 L 267.0 847.1 L 274.1 846.8 L 281.1 846.5 L 288.1 846.2 L 295.2 845.9 L 302.2 845.5 L 309.2 845.1 L 316.3 844.7 L 323.3 844.2 L 330.4 843.7 L 337.4 843.2 L 344.4 842.6 L 351.5 842.0 L 358.5 841.3 L 365.5 840.7 L 372.6 839.9 L 379.6 839.1 L 386.6 838.3 L 393.7 837.4 L 400.7 836.4 L 407.7 835.4 L 414.8 834.3 L 421.8 833.2 L 428.8 832.0 L 435.9 830.7 L 442.9 829.4 L 449.9 828.0 L 457.0 826.5 L 464.0 824.9 L 471.1 823.3 L 478.1 821.6 L 485.1 819.7 L 492.2 817.8 L 499.2 815.9 L 506.2 813.8 L 513.3 811.6 L 520.3 809.3 L 527.3 807.0 L 534.4 804.5 L 541.4 802.0 L 548.4 799.3 L 555.5 796.6 L 562.5 793.8 L 569.5 790.8 L 576.6 787.8 L 583.6 784.7 L 590.7 781.4 L 597.7 778.1 L 604.7 774.7 L 611.8 771.2 L 618.8 767.6 L 625.8 763.9 L 632.9 760.2 L 639.9 756.3 L 646.9 752.4 L 654.0 748.5 L 661.0 744.4 L 668.0 740.3 L 675.1 736.1 L 682.1 731.9 L 689.1 727.6 L 696.2 723.3 L 703.2 719.0 L 710.3 714.7 L 717.3 710.3 L 724.3 705.9 L 731.4 701.5 L 738.4 697.1 L 745.4 692.8 L 752.5 688.4 L 759.5 684.1 L 766.5 679.8 L 773.6 675.6 L 780.6 671.4 L 787.6 667.3 L 794.7 663.3 L 801.7 659.3 L 808.7 655.5 L 815.8 651.7 L 822.8 648.1 L 829.8 644.6 L 836.9 641.2 L 843.9 637.9 L 851.0 634.8 L 858.0 631.9 L 865.0 629.1 L 872.1 626.5 L 879.1 624.0 L 886.1 621.7 L 893.2 619.6 L 900.2 617.8 L 907.2 616.1 L 914.3 614.6 L 921.3 613.3 L 928.3 612.2 L 935.4 611.3 L 942.4 610.7 L 949.4 610.2 L 956.5 610.0 L 963.5 610.0 L 970.6 610.2 L 977.6 610.7 L 984.6 611.3 L 991.7 612.2 L 998.7 613.3 L 1005.7 614.6 L 1012.8 616.1 L 1019.8 617.8 L 1026.8 619.6 L 1033.9 621.7 L 1040.9 624.0 L 1047.9 626.5 L 1055.0 629.1 L 1062.0 631.9 L 1069.0 634.8 L 1076.1 637.9 L 1083.1 641.2 L 1090.2 644.6 L 1097.2 648.1 L 1104.2 651.7 L 1111.3 655.5 L 1118.3 659.3 L 1125.3 663.3 L 1132.4 667.3 L 1139.4 671.4 L 1146.4 675.6 L 1153.5 679.8 L 1160.5 684.1 L 1167.5 688.4 L 1174.6 692.8 L 1181.6 697.1 L 1188.6 701.5 L 1195.7 705.9 L 1202.7 710.3 L 1209.7 714.7 L 1216.8 719.0 L 1223.8 723.3 L 1230.9 727.6 L 1237.9 731.9 L 1244.9 736.1 L 1252.0 740.3 L 1259.0 744.4 L 1266.0 748.5 L 1273.1 752.4 L 1280.1 756.3 L 1287.1 760.2 L 1294.2 763.9 L 1301.2 767.6 L 1308.2 771.2 L 1315.3 774.7 L 1322.3 778.1 L 1329.3 781.4 L 1336.4 784.7 L 1343.4 787.8 L 1350.5 790.8 L 1357.5 793.8 L 1364.5 796.6 L 1371.6 799.3 L 1378.6 802.0 L 1385.6 804.5 L 1392.7 807.0 L 1399.7 809.3 L 1406.7 811.6 L 1413.8 813.8 L 1420.8 815.9 L 1427.8 817.8 L 1434.9 819.7 L 1441.9 821.6 L 1448.9 823.3 L 1456.0 824.9 L 1463.0 826.5 L 1470.1 828.0 L 1477.1 829.4 L 1484.1 830.7 L 1491.2 832.0 L 1498.2 833.2 L 1505.2 834.3 L 1512.3 835.4 L 1519.3 836.4 L 1526.3 837.4 L 1533.4 838.3 L 1540.4 839.1 L 1547.4 839.9 L 1554.5 840.7 L 1561.5 841.3 L 1568.5 842.0 L 1575.6 842.6 L 1582.6 843.2 L 1589.6 843.7 L 1596.7 844.2 L 1603.7 844.7 L 1610.8 845.1 L 1617.8 845.5 L 1624.8 845.9 L 1631.9 846.2 L 1638.9 846.5 L 1645.9 846.8 L 1653.0 847.1 L 1660.0 847.3" fill="none" stroke="#9ec5e8" stroke-width="2" stroke-opacity="0.55"/>

    <!-- P70 dashed line + label -->
    <line x1="1130.3" y1="580.0" x2="1130.3" y2="866.0"
          stroke="#ed8936" stroke-width="2" stroke-dasharray="8 6" opacity="0.85"/>
    <text x="1142.3" y="588.0" fill="#ed8936" opacity="0.95"
          font-family="'Segoe UI','Helvetica Neue',Arial,sans-serif"
          font-size="22" font-weight="600" letter-spacing="2">P70</text>
  </g>

  <!-- Wordmark -->
  <g filter="url(#softGlow)">
    <text x="960.0" y="380" text-anchor="middle"
          font-family="'Segoe UI','Helvetica Neue',Arial,sans-serif"
          font-size="280" font-weight="800" letter-spacing="14" fill="#ffffff">CASTR</text>
  </g>

  <!-- Subtitle: COST AND SCHEDULE TOTAL RISK -->
  <text x="960.0" y="470" text-anchor="middle"
        font-family="'Segoe UI','Helvetica Neue',Arial,sans-serif"
        font-size="36" font-weight="500" letter-spacing="14" fill="#bcd5ee" opacity="0.95">
    COST AND SCHEDULE TOTAL RISK
  </text>

  <!-- Divider rule -->
  <line x1="740.0" y1="510" x2="1180.0" y2="510"
        stroke="#4299e1" stroke-width="2" opacity="0.55"/>

  <!-- Tagline -->
  <text x="960.0" y="560" text-anchor="middle"
        font-family="'Segoe UI','Helvetica Neue',Arial,sans-serif"
        font-size="28" font-style="italic" fill="#ffffff" opacity="0.78">
    Thousands of scenarios. One defensible estimate.
  </text>

  <!-- Loading progress bar -->
  <g>
    <rect x="740.0" y="950" width="440" height="6" rx="3"
          fill="#ffffff" opacity="0.18"/>
    <rect x="740.0" y="950" width="200" height="6" rx="3"
          fill="url(#loadbar)"/>
    <text x="960.0" y="985" text-anchor="middle"
          font-family="'Segoe UI','Helvetica Neue',Arial,sans-serif"
          font-size="16" font-weight="600" letter-spacing="6"
          fill="#ffffff" opacity="0.6">LOADING SIMULATION ENGINE</text>
  </g>

  <!-- Footer left: methodology -->
  <text x="64" y="1032" font-family="'Segoe UI','Helvetica Neue',Arial,sans-serif"
        font-size="16" fill="#ffffff" opacity="0.55">
    Built on FHWA / NHI Course 134205 methodology
  </text>

  <!-- Footer right: version -->
  <text x="1856" y="1032" text-anchor="end"
        font-family="'Segoe UI','Helvetica Neue',Arial,sans-serif"
        font-size="16" font-weight="600" letter-spacing="2" fill="#ffffff" opacity="0.55">
    v2.9.1
  </text>

  <!-- Subtle corner accents -->
  <g stroke="#4299e1" stroke-width="2" fill="none" opacity="0.55">
    <path d="M 40 40 L 40 100 M 40 40 L 100 40"/>
    <path d="M 1880 40 L 1880 100 M 1880 40 L 1820 40"/>
    <path d="M 40 1040 L 40 980 M 40 1040 L 100 1040"/>
    <path d="M 1880 1040 L 1880 980 M 1880 1040 L 1820 1040"/>
  </g>
</svg>
